<svg width="88" height="88" viewBox="0 0 88 88" fill="none" xmlns="http://www.w3.org/2000/svg">
<path d="M67.5984 27.7286L57.4977 13.1378C56.749 12.0586 55.754 11.1734 54.595 10.5555C53.436 9.93758 52.1465 9.60475 50.8332 9.5846L31.6645 9.3096H31.625C21.7286 9.3096 14.1355 10.9649 9.24516 19.0436C4.69219 26.5634 2.75 39.3731 2.75 61.875V64.625H9.03323L4.9885 85.25H10.5933L14.6381 64.625H16.5C20.9914 64.6651 25.3183 62.937 28.5464 59.8139C31.4646 57.0216 33.5696 53.2015 34.634 48.7668L34.6436 48.7269L39.3604 26.125H33.7418L29.2767 47.5214C27.9168 53.1382 23.8504 59.125 16.5 59.125H8.26031C8.40967 39.6574 10.1822 28.1155 13.9502 21.891C17.1127 16.666 21.7353 14.8113 31.6059 14.8087L50.7542 15.0837C51.1919 15.0904 51.6218 15.2013 52.0081 15.4073C52.3945 15.6133 52.7261 15.9084 52.9757 16.2681L64.4016 32.7714L79.75 35.3296V38.2444L77.1904 51.8949C76.435 55.9238 75.1438 57.9533 69.8483 58.5894L48.1394 62.3035L47.9959 85.25H53.4959L53.6106 66.9465L70.5746 64.0418C74.4177 63.5693 77.2532 62.3308 79.2416 60.2566C80.9414 58.4832 81.976 56.2176 82.5964 52.9086L85.25 38.7556V30.6704L67.5984 27.7286Z" fill="white"/>
</svg>
